<svg preserveAspectRatio="none" width="100%" height="100%" overflow="visible" style="display: block;" viewBox="0 0 23 23" fill="none" xmlns="http://www.w3.org/2000/svg">
<g id="CrownSimple">
<g id="Vector">
</g>
<path id="Vector_2" opacity="0.2" d="M4.05449 17.6109C4.07689 17.7054 4.11818 17.7943 4.17587 17.8725C4.23355 17.9506 4.30645 18.0162 4.39016 18.0654C4.47387 18.1146 4.56667 18.1464 4.66297 18.1588C4.75928 18.1712 4.8571 18.164 4.95055 18.1376C9.23512 16.9546 13.7601 16.9541 18.0449 18.1363C18.1383 18.1627 18.2361 18.1699 18.3324 18.1575C18.4287 18.1451 18.5214 18.1133 18.6051 18.0642C18.6888 18.015 18.7617 17.9494 18.8193 17.8713C18.877 17.7933 18.9183 17.7043 18.9408 17.6099L21.2308 7.87831C21.2614 7.74803 21.2551 7.61178 21.2125 7.4849C21.1699 7.35802 21.0927 7.24556 20.9897 7.16018C20.8866 7.0748 20.7617 7.01989 20.6292 7.00163C20.4966 6.98338 20.3615 7.00251 20.2392 7.05687L15.6946 9.0767C15.5305 9.14964 15.345 9.1585 15.1747 9.10154C15.0044 9.04459 14.8616 8.92594 14.7744 8.76896L12.1283 4.00595C12.066 3.8939 11.9749 3.80054 11.8645 3.73554C11.754 3.67053 11.6281 3.63626 11.5 3.63626C11.3718 3.63626 11.2459 3.67053 11.1355 3.73554C11.025 3.80054 10.9339 3.8939 10.8717 4.00595L8.22555 8.76896C8.13834 8.92594 7.99552 9.04459 7.82521 9.10154C7.6549 9.1585 7.46944 9.14964 7.30534 9.0767L2.76001 7.05656C2.63773 7.00221 2.50271 6.98308 2.37015 7.00132C2.23759 7.01955 2.11275 7.07443 2.00968 7.15978C1.90662 7.24512 1.82943 7.35754 1.7868 7.48438C1.74417 7.61122 1.73779 7.74744 1.76839 7.87771L4.05449 17.6109Z" fill="#00A355"/>
<path id="Vector_3" d="M4.05449 17.6109C4.07689 17.7054 4.11818 17.7943 4.17587 17.8725C4.23355 17.9506 4.30645 18.0162 4.39016 18.0654C4.47387 18.1146 4.56667 18.1464 4.66297 18.1588C4.75928 18.1712 4.8571 18.164 4.95055 18.1376C9.23512 16.9546 13.7601 16.9541 18.0449 18.1363C18.1383 18.1627 18.2361 18.1699 18.3324 18.1575C18.4287 18.1451 18.5214 18.1133 18.6051 18.0642C18.6888 18.015 18.7617 17.9494 18.8193 17.8713C18.877 17.7933 18.9183 17.7043 18.9408 17.6099L21.2308 7.87831C21.2614 7.74803 21.2551 7.61178 21.2125 7.4849C21.1699 7.35802 21.0927 7.24556 20.9897 7.16018C20.8866 7.0748 20.7617 7.01989 20.6292 7.00163C20.4966 6.98338 20.3615 7.00251 20.2392 7.05687L15.6946 9.0767C15.5305 9.14964 15.345 9.1585 15.1747 9.10154C15.0044 9.04459 14.8616 8.92594 14.7744 8.76896L12.1283 4.00595C12.066 3.8939 11.9749 3.80054 11.8645 3.73554C11.754 3.67053 11.6281 3.63626 11.5 3.63626C11.3718 3.63626 11.2459 3.67053 11.1355 3.73554C11.025 3.80054 10.9339 3.8939 10.8717 4.00595L8.22555 8.76896C8.13834 8.92594 7.99552 9.04459 7.82521 9.10154C7.6549 9.1585 7.46944 9.14964 7.30534 9.0767L2.76001 7.05656C2.63773 7.00221 2.50271 6.98308 2.37015 7.00132C2.23759 7.01955 2.11275 7.07443 2.00968 7.15978C1.90662 7.24512 1.82943 7.35754 1.7868 7.48438C1.74417 7.61122 1.73779 7.74744 1.76839 7.87771L4.05449 17.6109Z" stroke="#00A355" stroke-width="1.5" stroke-linecap="round" stroke-linejoin="round"/>
</g>
</svg>
