<svg preserveAspectRatio="none" width="100%" height="100%" overflow="visible" style="display: block;" viewBox="0 0 58 58" fill="none" xmlns="http://www.w3.org/2000/svg">
<g id="GraduationCap">
<g id="Vector">
</g>
<path id="Vector_2" opacity="0.2" d="M8.15625 25.1333V37.4857C8.1555 37.8767 8.28189 38.2573 8.51637 38.5702C10.0426 40.6012 16.4818 48.0312 29 48.0312C41.5182 48.0312 47.9573 40.6012 49.4836 38.5702C49.7181 38.2573 49.8445 37.8767 49.8437 37.4857V25.1333L29 36.25L8.15625 25.1333Z" fill="#00A355"/>
<path id="Vector_3" d="M1.8125 21.75L29 7.25L56.1875 21.75L29 36.25L1.8125 21.75Z" stroke="#00A355" stroke-width="1.5" stroke-linecap="round" stroke-linejoin="round"/>
<path id="Vector_4" d="M42.5938 54.375V29L29 21.75" stroke="#00A355" stroke-width="1.5" stroke-linecap="round" stroke-linejoin="round"/>
<path id="Vector_5" d="M49.8437 25.1333V37.4857C49.8445 37.8767 49.7181 38.2573 49.4836 38.5702C47.9573 40.6012 41.5182 48.0312 29 48.0312C16.4818 48.0312 10.0426 40.6012 8.51637 38.5702C8.28189 38.2573 8.1555 37.8767 8.15625 37.4857V25.1333" stroke="#00A355" stroke-width="1.5" stroke-linecap="round" stroke-linejoin="round"/>
</g>
</svg>
