<svg preserveAspectRatio="none" width="100%" height="100%" overflow="visible" style="display: block;" viewBox="0 0 56 56" fill="none" xmlns="http://www.w3.org/2000/svg">
<g id="IdentificationCard">
<g id="Vector">
</g>
<path id="Vector_2" opacity="0.2" d="M47.25 10.5H8.75C8.28587 10.5 7.84075 10.6844 7.51256 11.0126C7.18437 11.3408 7 11.7859 7 12.25V43.75C7 44.2141 7.18437 44.6592 7.51256 44.9874C7.84075 45.3156 8.28587 45.5 8.75 45.5H47.25C47.7141 45.5 48.1592 45.3156 48.4874 44.9874C48.8156 44.6592 49 44.2141 49 43.75V12.25C49 11.7859 48.8156 11.3408 48.4874 11.0126C48.1592 10.6844 47.7141 10.5 47.25 10.5ZM20.147 31.5C19.1086 31.5 18.0936 31.1921 17.2302 30.6152C16.3669 30.0383 15.694 29.2184 15.2966 28.2591C14.8992 27.2998 14.7953 26.2442 14.9979 25.2258C15.2004 24.2074 15.7004 23.2719 16.4347 22.5377C17.1689 21.8035 18.1044 21.3034 19.1228 21.1009C20.1412 20.8983 21.1968 21.0023 22.1561 21.3996C23.1154 21.797 23.9353 22.4699 24.5122 23.3333C25.0891 24.1966 25.397 25.2116 25.397 26.25C25.397 26.9394 25.2612 27.6221 24.9973 28.2591C24.7335 28.8961 24.3468 29.4748 23.8593 29.9623C23.3718 30.4498 22.793 30.8365 22.1561 31.1004C21.5191 31.3642 20.8364 31.5 20.147 31.5V31.5Z" fill="#00A355"/>
<path id="Vector_3" d="M33.25 24.5H42" stroke="#00A355" stroke-width="1.5" stroke-linecap="round" stroke-linejoin="round"/>
<path id="Vector_4" d="M33.25 31.5H42" stroke="#00A355" stroke-width="1.5" stroke-linecap="round" stroke-linejoin="round"/>
<path id="Vector_5" d="M20.1469 31.5C23.0464 31.5 25.3969 29.1495 25.3969 26.25C25.3969 23.3505 23.0464 21 20.1469 21C17.2474 21 14.8969 23.3505 14.8969 26.25C14.8969 29.1495 17.2474 31.5 20.1469 31.5Z" stroke="#00A355" stroke-width="1.5" stroke-linecap="round" stroke-linejoin="round"/>
<path id="Vector_6" d="M13.3675 36.7499C13.7559 35.2473 14.6325 33.9163 15.8596 32.966C17.0866 32.0157 18.5947 31.5001 20.1467 31.5C21.6987 31.4999 23.2067 32.0155 24.4339 32.9657C25.661 33.9159 26.5377 35.2468 26.9262 36.7494" stroke="#00A355" stroke-width="1.5" stroke-linecap="round" stroke-linejoin="round"/>
<path id="Vector_7" d="M47.25 10.5H8.75C7.7835 10.5 7 11.2835 7 12.25V43.75C7 44.7165 7.7835 45.5 8.75 45.5H47.25C48.2165 45.5 49 44.7165 49 43.75V12.25C49 11.2835 48.2165 10.5 47.25 10.5Z" stroke="#00A355" stroke-width="1.5" stroke-linecap="round" stroke-linejoin="round"/>
</g>
</svg>
