<svg preserveAspectRatio="none" width="100%" height="100%" overflow="visible" style="display: block;" viewBox="0 0 55 55" fill="none" xmlns="http://www.w3.org/2000/svg">
<g id="User">
<g id="Vector">
</g>
<path id="Vector_2" opacity="0.2" d="M27.5 34.375C35.0939 34.375 41.25 28.2189 41.25 20.625C41.25 13.0311 35.0939 6.875 27.5 6.875C19.9061 6.875 13.75 13.0311 13.75 20.625C13.75 28.2189 19.9061 34.375 27.5 34.375Z" fill="#00A355"/>
<path id="Vector_3" d="M27.5 34.375C35.0939 34.375 41.25 28.2189 41.25 20.625C41.25 13.0311 35.0939 6.875 27.5 6.875C19.9061 6.875 13.75 13.0311 13.75 20.625C13.75 28.2189 19.9061 34.375 27.5 34.375Z" stroke="#00A355" stroke-width="1.5" stroke-miterlimit="10"/>
<path id="Vector_4" d="M6.65756 46.4042C8.77068 42.7467 11.8091 39.7095 15.4676 37.598C19.1261 35.4865 23.2759 34.375 27.5 34.375C31.7241 34.375 35.8739 35.4867 39.5323 37.5983C43.1908 39.7099 46.2292 42.747 48.3422 46.4047" stroke="#00A355" stroke-width="1.5" stroke-linecap="round" stroke-linejoin="round"/>
</g>
</svg>
